<?xml version="1.0" encoding="utf-8"?>
<!-- Generator: Adobe Illustrator 16.0.0, SVG Export Plug-In . SVG Version: 6.00 Build 0)  -->
<!DOCTYPE svg PUBLIC "-//W3C//DTD SVG 1.1//EN" "http://www.w3.org/Graphics/SVG/1.1/DTD/svg11.dtd">
<svg version="1.1" id="Layer_1" xmlns="http://www.w3.org/2000/svg" xmlns:xlink="http://www.w3.org/1999/xlink" x="0px" y="0px"
	 width="42px" height="42px" viewBox="0 0 42 42" enable-background="new 0 0 42 42" xml:space="preserve">
<g>
	<path fill="#ACB578" d="M14.52,21.824h-4.391v5.051h4.31c0.399,0,0.777-0.035,1.133-0.115c0.361-0.078,0.681-0.203,0.951-0.389
		c0.27-0.178,0.494-0.422,0.657-0.732c0.163-0.307,0.241-0.705,0.241-1.188c0-0.947-0.266-1.617-0.795-2.025
		C16.096,22.025,15.389,21.824,14.52,21.824z"/>
	<path fill="#ACB578" d="M29.334,19.097c-0.584,0-1.066,0.098-1.453,0.298c-0.377,0.197-0.686,0.443-0.922,0.732
		c-0.236,0.294-0.396,0.604-0.49,0.936c-0.094,0.322-0.148,0.617-0.166,0.875h5.936c-0.088-0.929-0.406-1.618-0.842-2.101
		C30.963,19.357,30.229,19.097,29.334,19.097z"/>
	<path fill="#ACB578" d="M15.993,18.553c0.465-0.339,0.69-0.899,0.69-1.668c0-0.427-0.075-0.779-0.225-1.053
		c-0.156-0.274-0.362-0.488-0.623-0.638c-0.258-0.156-0.55-0.264-0.889-0.322c-0.333-0.065-0.681-0.091-1.039-0.091h-3.778v4.286
		h4.086C14.931,19.068,15.523,18.898,15.993,18.553z"/>
	<path fill="#ACB578" d="M32.017,0H9.983C4.479,0,0,4.509,0,10.054v21.894C0,37.49,4.479,42,9.983,42h22.033
		C37.521,42,42,37.49,42,31.948V10.054C42,4.509,37.521,0,32.017,0z M25.557,12.887h7.434v1.811h-7.434V12.887z M20.915,27.078
		c-0.358,0.682-0.848,1.234-1.45,1.662c-0.607,0.43-1.305,0.744-2.087,0.949c-0.772,0.207-1.575,0.309-2.397,0.309H6.09v-18.34
		h8.647c0.877,0,1.669,0.075,2.393,0.232c0.719,0.152,1.333,0.407,1.853,0.757c0.511,0.35,0.911,0.813,1.197,1.398
		c0.279,0.576,0.419,1.299,0.419,2.152c0,0.923-0.209,1.694-0.628,2.312c-0.422,0.615-1.042,1.12-1.872,1.513
		c1.129,0.324,1.965,0.896,2.52,1.708c0.557,0.816,0.83,1.797,0.83,2.943C21.45,25.604,21.271,26.404,20.915,27.078z M35.887,24.236
		h-9.584c0,1.051,0.355,2.045,0.902,2.578s1.336,0.803,2.359,0.803c0.736,0,1.371-0.188,1.904-0.559
		c0.529-0.369,0.852-0.766,0.975-1.176h3.213c-0.516,1.598-1.299,2.74-2.367,3.426c-1.057,0.689-2.346,1.035-3.846,1.035
		c-1.047,0-1.988-0.17-2.834-0.504c-0.844-0.338-1.551-0.811-2.145-1.428c-0.578-0.619-1.027-1.354-1.348-2.213
		c-0.318-0.857-0.477-1.805-0.477-2.832c0-0.992,0.166-1.92,0.49-2.778c0.33-0.859,0.789-1.603,1.391-2.226
		c0.604-0.625,1.318-1.119,2.152-1.48c0.832-0.359,1.752-0.541,2.77-0.541c1.123,0,2.107,0.217,2.951,0.657
		c0.84,0.435,1.529,1.023,2.07,1.761c0.541,0.735,0.926,1.576,1.168,2.521C35.871,22.223,35.955,23.207,35.887,24.236z"/>
</g>
</svg>
