<?xml version="1.0" encoding="utf-8"?>
<!-- Generator: Adobe Illustrator 16.0.0, SVG Export Plug-In . SVG Version: 6.00 Build 0)  -->
<!DOCTYPE svg PUBLIC "-//W3C//DTD SVG 1.1//EN" "http://www.w3.org/Graphics/SVG/1.1/DTD/svg11.dtd">
<svg version="1.1" id="Layer_1" xmlns="http://www.w3.org/2000/svg" xmlns:xlink="http://www.w3.org/1999/xlink" x="0px" y="0px"
	 width="348px" height="261.01px" viewBox="0 0 348 261.01" enable-background="new 0 0 348 261.01" xml:space="preserve">
<g>
	<path fill="#231D1D" d="M102.91,148.584c0,0-11.5-4.625-5.5-27.125s18.375-34.5,18.375-34.5l-13.125,3c0,0,41.25-33.75,86.625-31.5
		c5.25,1.125-3.75-4.125-3.75-4.125s17.25,0.375,21,1.125s-1.875-6-1.875-6s46.875,6.75,65.625,28.125
		c18.75,21.375,21.75,68.25,14.25,89.25c-3.375-7.5-8.25-15-8.25-15s-6.75,52.5-16.5,61.5c2.25-8.25-1.125-12.375-1.125-12.375
		s-13.875,19.5-19.125,22.875c-60.598,38.955-1.897-126.64,0.75-121.875c-3,6.75-19.5,12.375-25.125,14.25
		c9.75-7.5,9.75-14.625,9.75-14.625s-28.5,34.125-79.5,34.125c13.125-7.125,15.375-13.875,15.375-13.875
		S106.285,138.084,102.91,148.584z"/>
	<path fill="#1C1616" d="M251.898,125.762c0,0,11.441,49.744-5.223,83.564c-16.664,33.822,13.928-19.65,15.668-25.119
		c1.74-5.473,0.994,20.393,0.994,19.15c0-1.244,12.684-51.482,12.684-57.949c0-6.465,9.451,17.412,9.203,16.664
		c-0.25-0.746,2.734-46.508-2.488-51.98c1.494,20.891-1.74,30.592-1.74,30.592l-8.953-10.943c0,0-9.451,43.523-9.949,44.271
		C261.598,174.756,255.629,133.225,251.898,125.762z"/>
	<path fill="#ACB578" d="M0.349,218.77l347.303,3.826c0,0-19.979,4.25-23.805,15.305c-3.826,11.051-25.504,21.254-81.193,22.529
		c-55.689,1.273-225.729-1.703-226.153-10.205C16.076,241.723,7.152,217.494,0.349,218.77z"/>
	<path fill="#8C9964" d="M37.935,230.35c0,0-9.398-4.453-10.885,0.99c-1.482,5.441-3.463,10.389,11.875,10.389
		c15.336,0,2.967,0.496,26.715,4.453c23.748,3.959,66.791,13.855,79.652,7.422c12.865-6.432,23.256-14.842,28.697-12.865
		c5.442,1.98,10.389,8.906,20.284,8.412c9.895-0.496,48.484-23.746,39.578-26.221C224.947,220.457,37.935,230.35,37.935,230.35z"/>
	<path fill="#1C1616" d="M92.47,99.182c0,0,3.236,34.922,3.006,40.475c-0.232,5.549-6.939,17.807-9.715,17.807
		c-2.773,0,23.822,0.463,27.521-3.469c3.701-3.932-7.42,5.906-4.395,9.48c0.445,0.525,15.275,0.741,18.778,4.192
		c21.153,20.838,2.411,48.68,2.411,48.68s12.486,6.012,23.59-6.014C164.769,198.306,186.367,73.973,92.47,99.182z"/>
	<path fill="#231F20" d="M92.894,107.078c0,0,0.514,6.834,2.965,14.572c2.451,7.734,4.385,25.396,0.904,29.521
		c-3.482,4.129,14.439,3.094,17.018-0.902s-1.547-53.891-1.547-53.891S92.25,103.469,92.894,107.078z"/>
	<path fill="#1C1616" d="M114.894,63.6c0,0-22.405,26.982-26.495,30.746c-4.088,3.759-17.498,7.684-19.46,5.722
		c-1.961-1.961,16.518,17.172,21.914,17.008c5.397-0.163-5.561,5.561-9.811,3.596c-4.251-1.961,8.013,9.322,12.919,9.65
		c4.904,0.327-5.07,1.799-5.07,1.799s4.579,13.08,20.933,12.429C126.179,143.894,199.114,112.17,114.894,63.6z"/>
	<path fill="#231F20" d="M109.61,69.483c0,0-4.469,5.195-8.208,12.4c-3.736,7.202-14.857,21.059-20.235,21.515
		c-5.382,0.457,8.022,12.397,12.671,11.396c4.648-1.003,37.013-39.2,37.013-39.2S111.707,66.476,109.61,69.483z"/>
	<path fill="#231F20" d="M137.117,158.266c0,0-7.734,6.316-9.152,6.059s8.895,2.32,12.377-1.031
		C143.822,159.941,137.117,158.266,137.117,158.266z"/>
	<path fill="#D97383" d="M142.531,163.682c0,0-0.852,30.607-4.252,35.283c-3.398,4.678-13.07,17.819-19.445,20.368
		c-6.377,2.553,22.529,4.676,22.529,4.676s14.348-40.771,10.945-56.075C148.908,152.631,142.531,163.682,142.531,163.682z"/>
	<path fill="#CA6B7B" d="M149.41,168.334c0,0-3.5,38.748-11,45c-7.5,6.25-5,4.75-5,4.75s7,2.498,11.75-1
		c4.75-3.5,9.25-50,7.75-50.498C151.41,166.084,149.41,168.334,149.41,168.334z"/>
	<path fill="#F27F90" d="M148.908,165.809c0,0,0.086,0.615,0.205,1.723c0.904,8.391,3.695,44.951-15.084,53.965
		c-21.256,10.201,83.319,3.402,83.319,3.402s7.652-49.738-2.975-59.514C203.746,155.605,153.583,159.006,148.908,165.809z"/>
	<path fill="#D97383" d="M161.056,181.891c0,0-3.969,6.172-5.805,6.465c-1.838,0.297,0.512,4.482,4.629,4.633
		c4.115,0.146-1.543-1.914-2.057-3.971S161.203,184.828,161.056,181.891z"/>
	<path fill="#D97383" d="M192.436,181.816c0,0-5.805,7.938-6.688,7.498c-0.881-0.443,3.602,5.949,8.377,4.629
		c4.775-1.324-5.73-2.061-4.775-4.998C190.305,186.006,192.508,182.113,192.436,181.816z"/>
	<path fill="#D97383" d="M214.662,165.584c0,0,2.5,45.252-7.25,52.002s-18.25,0.998-18.25,0.998s22.498-16.752,22.248-32.75
		c-0.248-16-0.248-18.25-0.248-18.25L214.662,165.584z"/>
	<path fill="#CA6B7B" d="M143.16,166.084c0,0-1.248,5.002,12.75,7.252c14,2.25,61.25,4.5,66.75-12.502
		C228.162,143.834,143.16,166.084,143.16,166.084z"/>
	<path fill="#F5E0CD" d="M185.709,224.25c0,0-8.189,2.648-9.314,1.205c-1.125-1.445-3.456-3.293-4.579-1.365
		s-0.322,7.869,2.971,6.744c1.766-0.48,2.731-1.283,2.731-1.283s-6.309,2.486-7.95,4.496c-0.568,0.695,0.158,5.061,6.102,2.971
		c5.943-2.088,6.023-2.568,6.023-2.568s-7.549,2.73-6.827,4.898c0.534,1.602,1.188,2.285,4.096,2.49
		c3.844,0.27,8.594-4.336,8.594-4.336s-5.668,3.434-5.461,5.217c0.217,1.869,5.219,3.293,7.066,2.008
		c1.846-1.283,5.299-4.176,5.299-4.176s-5.379,3.293-3.773,4.658s12.047-0.885,17.506-9.395
		C213.654,227.301,185.709,224.25,185.709,224.25z"/>
	<path fill="#F0D0B3" d="M171.871,228.117c0,0-0.34,2.846,3.188,2.846c3.525,0,4.662-1.705,4.662-1.705
		S173.349,230.623,171.871,228.117z"/>
	<path fill="#F0D0B3" d="M179.709,225.785c0,0-2.703,0.062,3.896,3.205c6.6,3.141,13.889,6.41,15.146,8.799
		c1.258,2.387-0.629,6.283-3.08,6.85c-2.449,0.568,3.521,0.377,9.555-6.221C211.26,231.818,179.709,225.785,179.709,225.785z"/>
	<path fill="#F0D0B3" d="M193.348,240.24c0,0-3.521,4.588-5.092,4.775c-1.57,0.191-5.404-1.57-5.404-1.57s1.824,1.195,3.896,1.006
		C188.822,244.264,193.348,240.24,193.348,240.24z"/>
	<path fill="#F0D0B3" d="M187.062,237.223c0,0-4.084,4.088-6.912,4.336c-2.83,0.252-4.777-0.814-4.777-1.695
		c0-0.879,0.816,0.252,3.33,0.691S187.062,237.223,187.062,237.223z"/>
	<path fill="#F0D0B3" d="M180.59,233.514c0,0-4.4,3.27-6.663,3.648c-2.264,0.375-3.961-0.818-3.961-1.574
		c0-0.752,2.578,0.883,3.961,0.818C175.311,236.344,180.59,233.514,180.59,233.514z"/>
	<path fill="#E5878A" d="M173.521,223.682c0,0-1.119,0.35-0.84,0.768c0.279,0.42,2.938,1.75,2.938,1.75l0.35-0.211
		C175.969,225.988,174.64,223.752,173.521,223.682z"/>
	<path fill="#E5878A" d="M171.142,233.906c0,0,2.502,1.967,2.545,2.367c0.045,0.402-1.562,0.668-2.01,0.49
		C171.232,236.584,169.267,234.979,171.142,233.906z"/>
	<path fill="#E5878A" d="M176.59,238.371c0,0,3.125,1.295,3.26,1.92c0.135,0.627-1.205,1.52-1.785,1.162
		S174.312,239.846,176.59,238.371z"/>
	<path fill="#E5878A" d="M183.824,241.586c0,0-1.473,1.027-0.535,1.83c0.938,0.807,3.561,1.119,3.928,1.029
		c0.895-0.223,1.607-0.895,1.607-0.895L183.824,241.586z"/>
	<path fill="#E5878A" d="M192.354,243.193c0,0-1.832,0.625-1.029,1.207c0.805,0.58,2.59,0.311,3.127,0.18
		C194.986,244.445,192.354,243.193,192.354,243.193z"/>
	<path fill="#F3A09F" d="M224.15,161.133c0,0,14.727,24.961,9.625,42.814c-5.1,17.854-11.795,31.686-24.744,35.617
		c-6.803,2.123-11.121-9.779-30.674-13.605c4.732-9.508,38.305-6.979,34.74-49.523c1.252-2.553-3.4-14.453-3.4-14.453
		L224.15,161.133z"/>
	<path fill="#F19399" d="M231.66,181.084c0,0,3.127,18.344-0.498,27.502c-4.752,12-10.252,25.748-23.002,29.498
		c-5.25-2.25-14-8.25-20.25-10.748c4.445-0.742,15.002,8.498,22.252,5.498C217.41,229.834,231.162,215.584,231.66,181.084z"/>
	<path fill="#F5E0CD" d="M113.517,87.85c0,0-3.006,47.412,2.08,54.349c5.088,6.938,8.555,29.373,62.211,29.373
		c53.656,0,72.156-24.053,76.551-32.842S274.02,70.737,265,60.098C255.979,49.459,166.248,20.32,113.517,87.85z"/>
	<path fill="#F0D0B3" d="M115.931,98.23c0,0,29.996-15.967,32.416-17.904c2.42-1.934-7.498,7.983-7.498,7.983
		s31.691,0.483,50.319-8.467c18.627-8.95,23.465-13.79,23.465-13.79l-1.934,4.113c0,0,18.143-4.597,23.949-8.951
		c5.807-4.354,10.889,21.048,10.404,36.289c-0.486,15.24-0.002,51.287-27.822,65.561c7.982-0.484,31.209-12.82,35.078-29.758
		c8.225-30.965-1.693-58.058-7.256-85.637c-5.564-27.579-110.801,22.981-110.801,22.981L115.931,98.23z"/>
	<path fill="#231D1D" d="M92.91,108.584c0,0-1.5-14.625,4.5-37.125c6-22.499,18.375-34.499,18.375-34.499l-13.125,3
		c0,0,41.25-33.75,86.625-31.5c5.25,1.125-3.75-4.125-3.75-4.125s17.25,0.375,21,1.125s-1.875-6-1.875-6s46.875,6.75,65.625,28.125
		s21.75,68.249,14.25,89.25c-3.375-7.5-8.25-15-8.25-15s-6.75,52.5-16.5,61.5c2.25-8.25-1.125-12.375-1.125-12.375
		s-13.875,19.5-19.125,22.875s32.625-64.5,0.75-121.875c-3,6.75-19.5,12.374-25.125,14.249c9.75-7.499,9.75-14.624,9.75-14.624
		s-28.5,34.124-79.5,34.124c13.125-7.125,15.375-13.875,15.375-13.875S96.285,98.084,92.91,108.584z"/>
	<path fill="#1C1616" d="M251.898,75.762c0,0,11.441,49.744-5.223,83.564c-16.664,33.822,13.928-19.65,15.668-25.119
		c1.74-5.473,0.994,20.393,0.994,19.15c0-1.244,12.684-51.482,12.684-57.949c0-6.466,9.451,17.412,9.203,16.664
		c-0.25-0.746,2.734-46.508-2.488-51.98c1.494,20.891-1.74,30.591-1.74,30.591l-8.953-10.942c0,0-9.451,43.523-9.949,44.271
		C261.598,124.756,255.629,83.224,251.898,75.762z"/>
	<path fill="#1C1616" d="M152.664,84.466c0,0,25.864-3.481,35.067-8.953c9.201-5.472,32.082-19.399,36.559-25.119
		C198.674,67.555,180.766,78.25,152.664,84.466z"/>
	<path fill="#1C1616" d="M96.953,100.135c0,0,54.965-30.589,63.42-29.098c-4.975-1.989-19.646,1.74-57.699,21.885
		C100.683,96.156,96.953,100.135,96.953,100.135z"/>
	<path fill="#1C1616" d="M106.902,37.958c0,0,22.135-5.721,29.348-4.477C143.46,34.725,129.533,24.279,106.902,37.958z"/>
	<path fill="#1C1616" d="M190.715,6.372l3.979,2.984c0,0,22.383,2.487,28.6,7.462C227.273,25.771,228.766,7.118,190.715,6.372z"/>
	<path fill="#1C1616" d="M214.59,2.393c0,0,15.666,13.927,15.418,17.906c0-4.229-21.387-18.901-21.387-18.901L214.59,2.393z"/>
	<path fill="#1C1616" d="M234.275,21.918c0,0,17.422,5.524,30.012,39.674C268.688,73.53,266.621,26.184,234.275,21.918z"/>
	<path fill="#231F20" d="M156.265,151.805l27.737-2.326c0,0,2.328,14.457-1.984,17.125c-4.312,2.67-18.838,2.326-20.208,1.164
		C160.441,166.604,155.65,159.129,156.265,151.805z"/>
	<path fill="#EB6373" d="M183.686,156.637c0,0-1.438-1.369-5.064-0.684c-3.627,0.684-4.928,1.779-4.928,1.779
		s-4.244-1.23-7.256,1.027c-3.012,2.26-3.764,6.229-3.422,7.049s14.51-1.025,16.426-1.096
		C181.357,164.646,183.959,164.303,183.686,156.637z"/>
	<path fill="#D4636B" d="M172.255,160.266c0,0,2.67-3.559,7.325-4.107c4.654-0.547,3.627,1.096,3.627,1.096
		s-0.273,5.408-1.164,6.367c-0.891,0.957-3.627,1.092-3.627,1.092s1.848-2.191,0.615-3.078
		C177.801,160.744,175.541,159.033,172.255,160.266z"/>
	<path fill="#E87081" d="M163.837,163.207c0,0,1.641-5.748,6.5-5.338c4.862,0.41,2.191,0.959,2.191,0.959
		S169.107,157.322,163.837,163.207z"/>
	<path fill="#FFFFFF" d="M157.47,153.01l-0.068,3.354c0,0,15.674-3.488,26.01-3.764c-0.273-0.615-0.615-2.055-0.615-2.055
		L157.47,153.01z"/>
	<path fill="#FFFFFF" d="M161.441,164.988l21.561-2.121c0,0-1.096,2.941-3.629,3.627c0,0-11.909,2.26-16.426,0.205
		C161.646,165.672,161.441,164.988,161.441,164.988z"/>
	<path fill="none" d="M157.265,152.805l25.737-2.326c0,0,2.328,12.457-1.984,15.125c-4.312,2.67-16.838,2.326-18.208,1.164
		C161.441,165.604,156.65,160.129,157.265,152.805z"/>
	<path fill="#FFFFFF" d="M188.883,107.426c0,0-4.084,15.145-0.619,20.125c2.467,3.545,7.471,8.404,13.83,9.855
		c3.705,0.844,8-0.18,12.184-1.439c11.361-3.422,8.209-27.652,8.209-27.652S193.881,108.59,188.883,107.426z"/>
	<path fill="#231F20" d="M229.793,118.773c0,0,5.613,3.674,6.934,0.668c1.324-3.01,4.188,1.67-0.107,3.006
		C232.326,123.783,229.904,119.941,229.793,118.773z"/>
	<path fill="#231F20" d="M230.084,123.262c0,0,2.881,3.715,4.391,1.846c1.512-1.869,2.379,2.012-0.715,2.109
		C230.666,127.312,229.904,124.111,230.084,123.262z"/>
	<path fill="#CAD69F" d="M211.879,120.568c0,7.07-5.975,13.756-12.115,13.756c-6.143,0-14.051-6.912-13.553-13.961
		c1.025-14.58,8.402-12.594,14.545-12.594S211.879,113.5,211.879,120.568z"/>
	<ellipse fill="#FFFFFF" cx="196.478" cy="123.408" rx="6.298" ry="5.854"/>
	<path fill="#231F20" d="M207.498,119.951c0.547,7.666-7.871,11.703-11.91,11.637c-4.039-0.068-8.146-4.176-8.625-7.734
		c-0.418-3.105,0.52-6.264,0.766-7.018c0.035-0.111,0.035-0.131,0.057-0.17C193.389,106.389,206.949,112.287,207.498,119.951z
		 M195.725,118.311c-2.723,0-4.928,2.145-4.928,4.789c0,2.646,2.205,4.793,4.928,4.793c2.721,0,4.928-2.146,4.928-4.793
		C200.652,120.455,198.445,118.311,195.725,118.311z"/>
	<path fill="#231F20" d="M188.332,107.426c0,0-3.902,14.006-1.984,18.66c1.918,4.652,8.283,10.814,15.332,12.592
		c7.051,1.781,14.746-2.334,17.385-3.969c4.316-2.67,5.893-22.156,3.629-26.258c-1.436-2.602-2.123-0.205-2.123-0.205
		s3.082,19.715-2.6,24.984c-5.68,5.271-14.031,4.996-20.123,2.051c-7.371-3.559-10.676-8.35-10.336-14.508
		c0.139-8.215,2.875-13.074,2.875-13.074L188.332,107.426z"/>
	<path fill="#231F20" d="M183.199,110.287c0,0-0.041-0.074-0.08-0.199c-0.133-0.453-0.193-1.592,1.996-2.607
		c2.807-1.301,20.328-2.807,40.316,0.273s-13.551,0.547-13.551,0.547S186.756,107.07,183.199,110.287z"/>
	<path fill="#231F20" d="M154.914,134.436c0,0-0.17,0.74,1.084,0.342s2.566-2.338,5.818-2.109c3.25,0.229,4.219,0.457,4.617,0.457
		c0.4,0-0.285-2.223-4.961-2.451S154.744,133.98,154.914,134.436z"/>
	<path fill="#FFFFFF" d="M116.261,112.758l23.607-0.611c0,0,1.314,16.09-2.01,18.271c-3.324,2.186-20.18,1.119-20.896-11.801
		C116.699,113.895,116.261,112.758,116.261,112.758z"/>
	<path fill="#CAD69F" d="M135.935,122.068c0,5.145-3.135,8.963-8.568,8.963c-2.686,0-4.607-1.582-6.383-3.234
		c-1.816-1.688-3.846-4.328-4.197-5.77c-1.213-4.998,3.879-9.27,9.311-9.27C131.531,112.758,135.935,116.928,135.935,122.068z"/>
	<path fill="#FFFFFF" d="M130.777,123.121c0,2.871-2.486,5.199-5.553,5.199s-5.553-2.328-5.553-5.199
		c0-2.875,2.486-5.203,5.553-5.203S130.777,120.246,130.777,123.121z"/>
	<path fill="#231F20" d="M133.837,122.988c0,4.248-3.41,8.137-7.564,7.693c-3.279-0.348-7.125-3.934-8.438-7.518
		c-1.459-3.992,3.955-8.045,8.133-8.045C130.144,115.119,133.837,118.738,133.837,122.988z M124.919,119.928
		c-2.174,0-3.936,1.664-3.936,3.717c0,2.051,1.762,3.715,3.936,3.715c2.172,0,3.934-1.664,3.934-3.715
		C128.853,121.592,127.091,119.928,124.919,119.928z"/>
	<path fill="#231F20" d="M116.437,113.631c0,0,0.174,7.609,1.836,10.582c1.66,2.971,6.492,5.637,10.033,6.668
		c3.701,1.078,9.408-0.289,10.459-2.127c1.049-1.834-0.033-16.432-0.033-16.432l1.75-0.176c0,0,1.225,16.826-1.225,18.486
		c-2.449,1.662-13.203,6.469-21.51-4.635c-2.885-3.846-2.186-12.715-2.186-12.715L116.437,113.631z"/>
	<path fill="#231F20" d="M110.142,115.732c0,0,7.256-2.014,14.076-3.498c6.82-1.486,17.4,2.885,17.838,2.797
		c0.436-0.088-0.789-3.674-2.975-3.934c-2.186-0.264-11.543-1.4-17.486-0.438c-5.945,0.961-9.092,5.244-12.502,4.023
		C105.683,113.459,107.167,115.904,110.142,115.732z"/>
	<path fill="#231F20" d="M113.814,113.982c0,0-4.428,1.582-5.479,0.006c-1.051-1.572-3.324,0.877,0.086,1.576
		C111.832,116.262,113.726,114.596,113.814,113.982z"/>
	<polygon fill="#DDDDDD" points="123.453,247.172 165.527,231.176 160.66,227.18 109.892,219.527 	"/>
	<polygon fill="#DDDDDD" points="26.265,163.199 32.349,233.438 123.48,247.178 126.929,245.26 124.498,177.627 	"/>
	<path fill="#D3D3D3" d="M119.835,207.619c0.215-1.201,2.121,36.826,2.121,36.826l-87.531-12.727c0,0,9.061-6.748,26.412-5.4
		C78.191,227.67,118.292,216.293,119.835,207.619z"/>
	<path fill="#D6D6D6" d="M29.412,167.131l2.121,26.414c0,0,29.307-13.305,62.66-11.953
		C127.548,182.939,29.412,167.131,29.412,167.131z"/>
	<polygon fill="#D3D3D3" points="150.343,229.041 147.07,227.883 150.556,227.027 153.828,228.186 	"/>
	<polygon fill="#D3D3D3" points="142.896,228.182 139.623,227.021 143.109,226.166 146.38,227.324 	"/>
	<polygon fill="#D3D3D3" points="135.568,227.988 132.296,226.832 135.783,225.973 139.052,227.131 	"/>
	<polygon fill="#D3D3D3" points="143.443,231.568 140.171,230.412 143.658,229.557 146.927,230.713 	"/>
	<polygon fill="#D3D3D3" points="133.833,231.268 130.562,230.107 134.048,229.252 137.318,230.408 	"/>
	<polygon fill="#D3D3D3" points="135.57,234.93 132.296,233.771 135.783,232.916 139.054,234.074 	"/>
	<polygon fill="#D3D3D3" points="129.841,226.984 126.568,225.826 130.054,224.971 133.326,226.129 	"/>
	<polygon fill="#D3D3D3" points="160.324,228.826 163.023,230.947 127.933,245.021 	"/>
	<path fill="#FFFFFF" d="M38.16,173.084c0,0,1.58,4.309-3,5.625c2.65,0.324,5.447,0.035,7.125,4.125
		c1.857,4.523-1.875-6.375,3-7.125C43.935,175.562,39.74,176.719,38.16,173.084z"/>
</g>
</svg>
