<?xml version="1.0" encoding="utf-8"?>
<!-- Generator: Adobe Illustrator 16.0.0, SVG Export Plug-In . SVG Version: 6.00 Build 0)  -->
<!DOCTYPE svg PUBLIC "-//W3C//DTD SVG 1.1//EN" "http://www.w3.org/Graphics/SVG/1.1/DTD/svg11.dtd">
<svg version="1.1" id="Layer_1" xmlns="http://www.w3.org/2000/svg" xmlns:xlink="http://www.w3.org/1999/xlink" x="0px" y="0px"
	 width="42px" height="42px" viewBox="0 0 42 42" enable-background="new 0 0 42 42" xml:space="preserve">
<path fill="#ACB578" d="M32.015,0H9.983C4.479,0,0,4.507,0,10.052v21.894C0,37.488,4.479,42,9.983,42h22.032
	C37.521,42,42,37.488,42,31.946V10.052C42,4.507,37.521,0,32.015,0z M19.498,20.85c-0.951,0-1.723-0.771-1.723-1.723
	s0.771-1.724,1.723-1.724s1.723,0.772,1.723,1.724S20.449,20.85,19.498,20.85z M22.166,34.991v-8.915
	c2.49-0.503,4.367-2.704,4.367-5.344c0-3.013-2.441-5.453-5.453-5.453s-5.453,2.44-5.453,5.453c0,2.622,1.852,4.812,4.32,5.334V35
	c-7.252-0.539-12.971-6.589-12.971-13.979C6.977,13.277,13.254,7,20.998,7S35.02,13.277,35.02,21.021
	C35.02,28.372,29.363,34.396,22.166,34.991z"/>
</svg>
