<?xml version="1.0" encoding="utf-8"?>
<!-- Generator: Adobe Illustrator 16.0.0, SVG Export Plug-In . SVG Version: 6.00 Build 0)  -->
<!DOCTYPE svg PUBLIC "-//W3C//DTD SVG 1.1//EN" "http://www.w3.org/Graphics/SVG/1.1/DTD/svg11.dtd">
<svg version="1.1" id="Layer_1" xmlns="http://www.w3.org/2000/svg" xmlns:xlink="http://www.w3.org/1999/xlink" x="0px" y="0px"
	 width="42px" height="42px" viewBox="0 0 42 42" enable-background="new 0 0 42 42" xml:space="preserve">
<g>
	<path fill="#ACB578" d="M9.737,14.486l-0.01,13.011L20.99,34.01l11.272-6.497l0.01-13.011L21.009,7.99L9.737,14.486z M29.72,26.043
		l-8.728,5.03l-8.72-5.042l0.008-10.074l8.727-5.03l8.721,5.042L29.72,26.043z"/>
	<path fill="#ACB578" d="M32.015,0H9.984C4.478,0,0,4.507,0,10.052v21.894C0,37.488,4.478,42,9.984,42h22.03
		C37.521,42,42,37.488,42,31.946V10.052C42,4.507,37.521,0,32.015,0z M33.985,28.509L20.989,36L8.004,28.49l0.011-15.001L21.01,6
		l12.985,7.509L33.985,28.509z"/>
	<path fill="#ACB578" d="M14.002,16.954l-0.005,8.082l6.997,4.047l7.003-4.037l0.006-8.082l-6.997-4.047L14.002,16.954z
		 M24.797,20.999c0,2.098-1.699,3.799-3.797,3.799s-3.798-1.701-3.798-3.799c0-0.193,0.015-0.385,0.044-0.573
		c0.372,0.263,0.826,0.417,1.316,0.417c1.267,0,2.294-1.028,2.294-2.295c0-0.485-0.15-0.935-0.408-1.305
		c0.181-0.027,0.364-0.041,0.552-0.041C23.098,17.202,24.797,18.903,24.797,20.999z"/>
</g>
</svg>
