<?xml version="1.0" encoding="utf-8"?>
<!-- Generator: Adobe Illustrator 16.0.0, SVG Export Plug-In . SVG Version: 6.00 Build 0)  -->
<!DOCTYPE svg PUBLIC "-//W3C//DTD SVG 1.1//EN" "http://www.w3.org/Graphics/SVG/1.1/DTD/svg11.dtd">
<svg version="1.1" id="Layer_1" xmlns="http://www.w3.org/2000/svg" xmlns:xlink="http://www.w3.org/1999/xlink" x="0px" y="0px"
	 width="42px" height="42px" viewBox="0 0 42 42" enable-background="new 0 0 42 42" xml:space="preserve">
<path fill="#ACB578" d="M32.019,0H9.984C4.479,0,0,4.51,0,10.055v21.893C0,37.492,4.479,42,9.984,42h12.799V25.868h-3.386V20.19
	h3.386v-4.373c0,0-0.311-2.272,1.834-4.288c0,0,1.354-1.621,4.09-1.647c0,0,0.759-0.028,0.788-0.028h4.895v5.173h-3.455
	c0,0-1.469,0.05-1.469,1.754v3.381h4.909l-0.393,5.737h-4.517V42h2.553C37.523,42,42,37.492,42,31.947V10.055
	C42,4.51,37.523,0,32.019,0z"/>
</svg>
