<?xml version="1.0" encoding="utf-8"?>
<!-- Generator: Adobe Illustrator 16.0.0, SVG Export Plug-In . SVG Version: 6.00 Build 0)  -->
<!DOCTYPE svg PUBLIC "-//W3C//DTD SVG 1.1//EN" "http://www.w3.org/Graphics/SVG/1.1/DTD/svg11.dtd">
<svg version="1.1" id="Layer_1" xmlns="http://www.w3.org/2000/svg" xmlns:xlink="http://www.w3.org/1999/xlink" x="0px" y="0px"
	 width="42px" height="42px" viewBox="0 0 42 42" enable-background="new 0 0 42 42" xml:space="preserve">
<path fill="#ACB578" d="M32.017,0H9.983C4.479,0,0,4.509,0,10.054v21.894C0,37.49,4.479,42,9.983,42h22.033
	C37.521,42,42,37.49,42,31.948V10.054C42,4.509,37.521,0,32.017,0z M13.843,26.948c-3.283,0-5.947-2.662-5.947-5.947
	c0-3.287,2.664-5.949,5.947-5.949c3.285,0,5.949,2.662,5.949,5.949C19.792,24.286,17.128,26.948,13.843,26.948z M27.948,27.157
	c-3.395,0-6.156-2.762-6.156-6.156s2.762-6.158,6.156-6.158s6.156,2.764,6.156,6.158S31.343,27.157,27.948,27.157z"/>
</svg>
