<?xml version="1.0" encoding="utf-8"?>
<!-- Generator: Adobe Illustrator 16.0.0, SVG Export Plug-In . SVG Version: 6.00 Build 0)  -->
<!DOCTYPE svg PUBLIC "-//W3C//DTD SVG 1.1//EN" "http://www.w3.org/Graphics/SVG/1.1/DTD/svg11.dtd">
<svg version="1.1" id="Layer_1" xmlns="http://www.w3.org/2000/svg" xmlns:xlink="http://www.w3.org/1999/xlink" x="0px" y="0px"
	 width="42px" height="42px" viewBox="0 0 42 42" enable-background="new 0 0 42 42" xml:space="preserve">
<path fill="#ACB578" d="M32.016,0H9.983C4.479,0,0,4.508,0,10.052v21.894C0,37.488,4.479,42,9.983,42h22.032
	C37.521,42,42,37.488,42,31.946V10.052C42,4.508,37.521,0,32.016,0z M13.356,34.381H7.354V16.323h6.003V34.381z M10.355,13.857
	h-0.04C8.303,13.857,7,12.471,7,10.738c0-1.771,1.343-3.119,3.395-3.119c2.055,0,3.316,1.348,3.357,3.119
	C13.752,12.471,12.448,13.857,10.355,13.857z M35,34.381L35,34.381h-6.003v-9.662c0-2.426-0.868-4.083-3.04-4.083
	c-1.658,0-2.646,1.117-3.08,2.195c-0.158,0.386-0.197,0.924-0.197,1.464v10.084h-6.002c0,0,0.079-16.363,0-18.056h6.002v2.556
	c0.798-1.229,2.224-2.981,5.41-2.981c3.948,0,6.91,2.581,6.91,8.128V34.381z"/>
</svg>
