<?xml version="1.0" encoding="utf-8"?>
<!-- Generator: Adobe Illustrator 16.0.0, SVG Export Plug-In . SVG Version: 6.00 Build 0)  -->
<!DOCTYPE svg PUBLIC "-//W3C//DTD SVG 1.1//EN" "http://www.w3.org/Graphics/SVG/1.1/DTD/svg11.dtd">
<svg version="1.1" id="Layer_1" xmlns="http://www.w3.org/2000/svg" xmlns:xlink="http://www.w3.org/1999/xlink" x="0px" y="0px"
	 width="42px" height="42px" viewBox="0 0 42 42" enable-background="new 0 0 42 42" xml:space="preserve">
<path fill="#ACB578" d="M32.016,0H9.984C4.478,0,0,4.507,0,10.052v21.894C0,37.488,4.478,42,9.984,42h22.031
	C37.521,42,42,37.488,42,31.946V10.052C42,4.507,37.521,0,32.016,0z M23.161,27.235c-1.736,0-3.371-0.938-3.93-2.004
	c0,0-0.934,3.705-1.133,4.421c-0.695,2.528-2.744,5.056-2.902,5.263c-0.111,0.145-0.357,0.099-0.383-0.093
	c-0.045-0.321-0.566-3.509,0.049-6.11c0.309-1.307,2.068-8.764,2.068-8.764s-0.514-1.027-0.514-2.546
	c0-2.384,1.383-4.163,3.102-4.163c1.463,0,2.17,1.099,2.17,2.414c0,1.473-0.936,3.67-1.42,5.708
	c-0.402,1.707,0.857,3.099,2.539,3.099c3.047,0,5.1-3.914,5.1-8.553c0-3.523-2.373-6.162-6.691-6.162
	c-4.881,0-7.922,3.638-7.922,7.702c0,1.402,0.416,2.391,1.064,3.154c0.295,0.353,0.338,0.493,0.23,0.896
	c-0.078,0.298-0.254,1.01-0.328,1.291c-0.107,0.408-0.438,0.554-0.805,0.402c-2.246-0.916-3.293-3.377-3.293-6.143
	C10.163,12.479,14.015,7,21.657,7c6.141,0,10.182,4.442,10.182,9.214C31.839,22.521,28.331,27.235,23.161,27.235z"/>
</svg>
