<?xml version="1.0" encoding="utf-8"?>
<!-- Generator: Adobe Illustrator 16.0.0, SVG Export Plug-In . SVG Version: 6.00 Build 0)  -->
<!DOCTYPE svg PUBLIC "-//W3C//DTD SVG 1.1//EN" "http://www.w3.org/Graphics/SVG/1.1/DTD/svg11.dtd">
<svg version="1.1" id="Layer_1" xmlns="http://www.w3.org/2000/svg" xmlns:xlink="http://www.w3.org/1999/xlink" x="0px" y="0px"
	 width="42px" height="42px" viewBox="0 0 42 42" enable-background="new 0 0 42 42" xml:space="preserve">
<path fill="#ACB578" d="M32.016,0H9.984C4.479,0,0,4.507,0,10.052v21.894C0,37.488,4.479,42,9.984,42h22.032
	C37.521,42,42,37.488,42,31.946V10.052C42,4.507,37.521,0,32.016,0z M18.53,24.11c0.182,0.969,1.004,1.865,2.012,1.977
	c2.104,0.182,4.209,0,6.296,0.164c1.813,0.273,2.709,2.764,1.485,4.119c-0.661,1.17-2.125,1.135-3.277,1.135
	c-2.123-0.037-4.32,0.256-6.391-0.385c-3.129-0.951-5.49-4.045-5.473-7.322c-0.109-3.35-0.036-6.717-0.036-10.066
	c-0.22-1.393,0.696-2.967,2.142-3.186c1.317-0.385,2.893,0.568,3.094,1.941c0.092,1.078,0.092,2.176,0.11,3.258
	c2.728,0.018,5.473-0.094,8.2,0.035c1.026,0.166,1.977,0.988,2.104,2.051c0.404,1.336-0.642,2.91-1.996,3.131
	c-2.781,0.219-5.581,0.055-8.382,0.092C18.454,22.077,18.399,23.103,18.53,24.11z"/>
</svg>
